<mxfile host="app.diagrams.net" agent="Mozilla/5.0 (Windows NT 10.0; Win64; x64; rv:134.0) Gecko/20100101 Firefox/134.0" version="26.0.10">
  <diagram name="Page-1" id="2iZMz1MSZMlMYcdQClPu">
    <mxGraphModel dx="284" dy="619" grid="1" gridSize="10" guides="1" tooltips="1" connect="1" arrows="1" fold="1" page="1" pageScale="1" pageWidth="850" pageHeight="1100" math="0" shadow="0">
      <root>
        <mxCell id="0" />
        <mxCell id="1" parent="0" />
        <mxCell id="o8JyrVgUbE3rWhO2O6_V-161" value="" style="endArrow=none;html=1;rounded=0;strokeWidth=1;dashed=1;dashPattern=8 8;exitX=0.6;exitY=0.017;exitDx=0;exitDy=0;exitPerimeter=0;" parent="1" edge="1" source="o8JyrVgUbE3rWhO2O6_V-235">
          <mxGeometry width="50" height="50" relative="1" as="geometry">
            <mxPoint x="2590" y="860" as="sourcePoint" />
            <mxPoint x="2590" y="240" as="targetPoint" />
          </mxGeometry>
        </mxCell>
        <mxCell id="o8JyrVgUbE3rWhO2O6_V-162" value="" style="endArrow=none;html=1;rounded=0;strokeWidth=1;dashed=1;dashPattern=8 8;exitX=0.5;exitY=0;exitDx=0;exitDy=0;" parent="1" edge="1" source="o8JyrVgUbE3rWhO2O6_V-233">
          <mxGeometry width="50" height="50" relative="1" as="geometry">
            <mxPoint x="2330" y="860" as="sourcePoint" />
            <mxPoint x="2329" y="240" as="targetPoint" />
          </mxGeometry>
        </mxCell>
        <mxCell id="o8JyrVgUbE3rWhO2O6_V-163" value="" style="endArrow=none;html=1;rounded=0;strokeWidth=1;dashed=1;dashPattern=8 8;" parent="1" edge="1">
          <mxGeometry width="50" height="50" relative="1" as="geometry">
            <mxPoint x="2189" y="850" as="sourcePoint" />
            <mxPoint x="2189" y="240" as="targetPoint" />
          </mxGeometry>
        </mxCell>
        <mxCell id="o8JyrVgUbE3rWhO2O6_V-164" value="" style="endArrow=none;html=1;rounded=0;strokeWidth=1;dashed=1;dashPattern=8 8;exitX=0.5;exitY=0;exitDx=0;exitDy=0;" parent="1" edge="1" source="o8JyrVgUbE3rWhO2O6_V-234">
          <mxGeometry width="50" height="50" relative="1" as="geometry">
            <mxPoint x="2480.8199999999997" y="840" as="sourcePoint" />
            <mxPoint x="2480" y="240" as="targetPoint" />
          </mxGeometry>
        </mxCell>
        <mxCell id="o8JyrVgUbE3rWhO2O6_V-165" value="&lt;div style=&quot;line-height: 200%;&quot; align=&quot;right&quot;&gt;&lt;b&gt;&lt;font style=&quot;font-size: 20px; line-height: 200%;&quot;&gt;Properties&lt;/font&gt;&lt;/b&gt;&lt;/div&gt;&lt;div align=&quot;right&quot;&gt;&lt;font style=&quot;font-size: 20px;&quot;&gt;&lt;br&gt;&lt;/font&gt;&lt;/div&gt;&lt;div style=&quot;line-height: 200%;&quot; align=&quot;right&quot;&gt;&lt;div style=&quot;line-height: 200%;&quot; align=&quot;right&quot;&gt;&lt;font style=&quot;font-size: 20px; line-height: 200%;&quot;&gt;Privacy and minimal disclosure&lt;/font&gt;&lt;div style=&quot;line-height: 200%;&quot; align=&quot;right&quot;&gt;&lt;font style=&quot;font-size: 20px; line-height: 200%;&quot;&gt;Portability&lt;/font&gt;&lt;div style=&quot;line-height: 200%;&quot; align=&quot;right&quot;&gt;&lt;font style=&quot;font-size: 20px; line-height: 200%;&quot;&gt;Persistence&lt;/font&gt;&lt;div style=&quot;line-height: 200%;&quot; align=&quot;right&quot;&gt;&lt;font style=&quot;font-size: 20px; line-height: 200%;&quot;&gt;Cost&lt;/font&gt;&lt;div style=&quot;line-height: 200%;&quot; align=&quot;right&quot;&gt;&lt;font style=&quot;font-size: 20px; line-height: 200%;&quot;&gt;Access and availability&lt;/font&gt;&lt;div style=&quot;line-height: 200%;&quot; align=&quot;right&quot;&gt;&lt;font style=&quot;font-size: 20px; line-height: 200%;&quot;&gt;Usability and consistency&lt;/font&gt;&lt;div style=&quot;line-height: 200%;&quot; align=&quot;right&quot;&gt;&lt;font style=&quot;font-size: 20px; line-height: 200%;&quot;&gt;Security and protection&lt;/font&gt;&lt;div style=&quot;line-height: 200%;&quot; align=&quot;right&quot;&gt;&lt;font style=&quot;font-size: 20px; line-height: 200%;&quot;&gt;Consent&lt;/font&gt;&lt;/div&gt;&lt;div style=&quot;line-height: 200%;&quot; align=&quot;right&quot;&gt;&lt;font style=&quot;font-size: 20px; line-height: 200%;&quot;&gt;Transparency&lt;/font&gt;&lt;div style=&quot;line-height: 200%;&quot; align=&quot;right&quot;&gt;&lt;font style=&quot;font-size: 20px; line-height: 200%;&quot;&gt;Verifiability and Authenticity&lt;/font&gt;&lt;div style=&quot;line-height: 200%;&quot; align=&quot;right&quot;&gt;&lt;font style=&quot;font-size: 20px; line-height: 200%;&quot;&gt;Decentralization and Autonomy&lt;/font&gt;&lt;/div&gt;&lt;div style=&quot;line-height: 200%;&quot; align=&quot;right&quot;&gt;&lt;font style=&quot;font-size: 20px; line-height: 200%;&quot;&gt;Standard&lt;/font&gt;&lt;/div&gt;&lt;div style=&quot;line-height: 200%;&quot; align=&quot;right&quot;&gt;&lt;div style=&quot;line-height: 200%;&quot; align=&quot;right&quot;&gt;&lt;font style=&quot;font-size: 20px; line-height: 200%;&quot;&gt;Interoperability&lt;/font&gt;&lt;div style=&quot;line-height: 200%;&quot; align=&quot;right&quot;&gt;&lt;font style=&quot;font-size: 20px; line-height: 200%;&quot;&gt;Ownership and control&lt;/font&gt;&lt;/div&gt;&lt;/div&gt;&lt;/div&gt;&lt;/div&gt;&lt;/div&gt;&lt;/div&gt;&lt;/div&gt;&lt;/div&gt;&lt;/div&gt;&lt;/div&gt;&lt;/div&gt;&lt;/div&gt;&lt;font style=&quot;font-size: 20px; line-height: 200%;&quot;&gt;Existence and represfentation&lt;/font&gt;&lt;/div&gt;" style="rounded=1;whiteSpace=wrap;html=1;align=right;fillColor=none;strokeColor=none;strokeWidth=2;" parent="1" vertex="1">
          <mxGeometry x="1670" y="310" width="360" height="412.5" as="geometry" />
        </mxCell>
        <mxCell id="o8JyrVgUbE3rWhO2O6_V-167" value="1" style="rounded=0;whiteSpace=wrap;html=1;fillColor=#fff2cc;strokeColor=#d6b656;" parent="1" vertex="1">
          <mxGeometry x="2050" y="300" width="20" height="20" as="geometry" />
        </mxCell>
        <mxCell id="o8JyrVgUbE3rWhO2O6_V-170" value="1" style="rounded=0;whiteSpace=wrap;html=1;fillColor=#ffe6cc;strokeColor=#d79b00;" parent="1" vertex="1">
          <mxGeometry x="2050" y="420" width="20" height="20" as="geometry" />
        </mxCell>
        <mxCell id="o8JyrVgUbE3rWhO2O6_V-171" value="8" style="rounded=0;whiteSpace=wrap;html=1;fillColor=#fff2cc;strokeColor=#d6b656;" parent="1" vertex="1">
          <mxGeometry x="2210" y="660" width="160" height="20" as="geometry" />
        </mxCell>
        <mxCell id="o8JyrVgUbE3rWhO2O6_V-173" value="2" style="rounded=0;whiteSpace=wrap;html=1;fillColor=#ffe6cc;strokeColor=#d79b00;" parent="1" vertex="1">
          <mxGeometry x="2150" y="540" width="40" height="20" as="geometry" />
        </mxCell>
        <mxCell id="o8JyrVgUbE3rWhO2O6_V-174" value="7" style="rounded=0;whiteSpace=wrap;html=1;fillColor=#fff2cc;strokeColor=#d6b656;" parent="1" vertex="1">
          <mxGeometry x="2090" y="580" width="140" height="20" as="geometry" />
        </mxCell>
        <mxCell id="o8JyrVgUbE3rWhO2O6_V-175" value="4" style="rounded=0;whiteSpace=wrap;html=1;fillColor=#ffe6cc;strokeColor=#d79b00;" parent="1" vertex="1">
          <mxGeometry x="2070" y="620" width="80" height="20" as="geometry" />
        </mxCell>
        <mxCell id="o8JyrVgUbE3rWhO2O6_V-176" value="6" style="rounded=0;whiteSpace=wrap;html=1;fillColor=#ffe6cc;strokeColor=#d79b00;" parent="1" vertex="1">
          <mxGeometry x="2090" y="660" width="120" height="20" as="geometry" />
        </mxCell>
        <mxCell id="o8JyrVgUbE3rWhO2O6_V-177" value="2" style="rounded=0;whiteSpace=wrap;html=1;fillColor=#fa6800;strokeColor=#C73500;fontColor=#000000;" parent="1" vertex="1">
          <mxGeometry x="2050" y="660" width="40" height="20" as="geometry" />
        </mxCell>
        <mxCell id="o8JyrVgUbE3rWhO2O6_V-178" value="7" style="rounded=0;whiteSpace=wrap;html=1;fillColor=#fa6800;strokeColor=#C73500;fontColor=#000000;" parent="1" vertex="1">
          <mxGeometry x="2050" y="700" width="140" height="20" as="geometry" />
        </mxCell>
        <mxCell id="o8JyrVgUbE3rWhO2O6_V-179" value="8" style="rounded=0;whiteSpace=wrap;html=1;fillColor=#ffe6cc;strokeColor=#d79b00;" parent="1" vertex="1">
          <mxGeometry x="2150" y="780" width="160" height="20" as="geometry" />
        </mxCell>
        <mxCell id="o8JyrVgUbE3rWhO2O6_V-180" value="5" style="rounded=0;whiteSpace=wrap;html=1;fillColor=#fa6800;strokeColor=#C73500;fontColor=#000000;" parent="1" vertex="1">
          <mxGeometry x="2050" y="780" width="100" height="20" as="geometry" />
        </mxCell>
        <mxCell id="o8JyrVgUbE3rWhO2O6_V-181" value="1" style="rounded=0;whiteSpace=wrap;html=1;fillColor=#ffe6cc;strokeColor=#d79b00;" parent="1" vertex="1">
          <mxGeometry x="2190" y="700" width="20" height="20" as="geometry" />
        </mxCell>
        <mxCell id="o8JyrVgUbE3rWhO2O6_V-182" value="2" style="rounded=0;whiteSpace=wrap;html=1;fillColor=#ffe6cc;strokeColor=#d79b00;" parent="1" vertex="1">
          <mxGeometry x="2050" y="340" width="40" height="20" as="geometry" />
        </mxCell>
        <mxCell id="o8JyrVgUbE3rWhO2O6_V-184" value="6" style="rounded=0;whiteSpace=wrap;html=1;fillColor=#fff2cc;strokeColor=#d6b656;" parent="1" vertex="1">
          <mxGeometry x="2150" y="620" width="120" height="20" as="geometry" />
        </mxCell>
        <mxCell id="o8JyrVgUbE3rWhO2O6_V-186" value="8" style="rounded=0;whiteSpace=wrap;html=1;fillColor=#fff2cc;strokeColor=#d6b656;" parent="1" vertex="1">
          <mxGeometry x="2050" y="500" width="160" height="20" as="geometry" />
        </mxCell>
        <mxCell id="o8JyrVgUbE3rWhO2O6_V-187" value="&lt;div&gt;5&lt;/div&gt;" style="rounded=0;whiteSpace=wrap;html=1;fillColor=#fff2cc;strokeColor=#d6b656;" parent="1" vertex="1">
          <mxGeometry x="2190" y="540" width="100" height="20" as="geometry" />
        </mxCell>
        <mxCell id="o8JyrVgUbE3rWhO2O6_V-188" value="1" style="rounded=0;whiteSpace=wrap;html=1;fillColor=#fff2cc;strokeColor=#d6b656;" parent="1" vertex="1">
          <mxGeometry x="2050" y="380" width="20" height="20" as="geometry" />
        </mxCell>
        <mxCell id="o8JyrVgUbE3rWhO2O6_V-196" value="1" style="rounded=0;whiteSpace=wrap;html=1;fillColor=#d5e8d4;strokeColor=#82b366;" parent="1" vertex="1">
          <mxGeometry x="2050" y="260" width="20" height="20" as="geometry" />
        </mxCell>
        <mxCell id="o8JyrVgUbE3rWhO2O6_V-189" value="3" style="rounded=0;whiteSpace=wrap;html=1;fillColor=#fff2cc;strokeColor=#d6b656;" parent="1" vertex="1">
          <mxGeometry x="2070" y="420" width="60" height="20" as="geometry" />
        </mxCell>
        <mxCell id="o8JyrVgUbE3rWhO2O6_V-191" value="10" style="rounded=0;whiteSpace=wrap;html=1;fillColor=#fff2cc;strokeColor=#d6b656;" parent="1" vertex="1">
          <mxGeometry x="2210" y="700" width="200" height="20" as="geometry" />
        </mxCell>
        <mxCell id="o8JyrVgUbE3rWhO2O6_V-192" value="8" style="rounded=0;whiteSpace=wrap;html=1;fillColor=#fff2cc;strokeColor=#d6b656;" parent="1" vertex="1">
          <mxGeometry x="2310" y="780" width="160" height="20" as="geometry" />
        </mxCell>
        <mxCell id="o8JyrVgUbE3rWhO2O6_V-193" value="12" style="rounded=0;whiteSpace=wrap;html=1;fillColor=#fff2cc;strokeColor=#d6b656;" parent="1" vertex="1">
          <mxGeometry x="2210" y="740" width="240" height="20" as="geometry" />
        </mxCell>
        <mxCell id="o8JyrVgUbE3rWhO2O6_V-197" value="10" style="rounded=0;whiteSpace=wrap;html=1;fillColor=#d5e8d4;strokeColor=#82b366;" parent="1" vertex="1">
          <mxGeometry x="2230" y="580" width="260" height="20" as="geometry" />
        </mxCell>
        <mxCell id="o8JyrVgUbE3rWhO2O6_V-198" value="2" style="rounded=0;whiteSpace=wrap;html=1;fillColor=#d5e8d4;strokeColor=#82b366;" parent="1" vertex="1">
          <mxGeometry x="2470" y="780" width="40" height="20" as="geometry" />
        </mxCell>
        <mxCell id="o8JyrVgUbE3rWhO2O6_V-199" value="6" style="rounded=0;whiteSpace=wrap;html=1;fillColor=#d5e8d4;strokeColor=#82b366;" parent="1" vertex="1">
          <mxGeometry x="2270" y="620" width="120" height="20" as="geometry" />
        </mxCell>
        <mxCell id="o8JyrVgUbE3rWhO2O6_V-200" value="12" style="rounded=0;whiteSpace=wrap;html=1;fillColor=#d5e8d4;strokeColor=#82b366;" parent="1" vertex="1">
          <mxGeometry x="2150" y="460" width="240" height="20" as="geometry" />
        </mxCell>
        <mxCell id="o8JyrVgUbE3rWhO2O6_V-201" value="11" style="rounded=0;whiteSpace=wrap;html=1;fillColor=#d5e8d4;strokeColor=#82b366;" parent="1" vertex="1">
          <mxGeometry x="2290" y="540" width="220" height="20" as="geometry" />
        </mxCell>
        <mxCell id="o8JyrVgUbE3rWhO2O6_V-202" value="10" style="rounded=0;whiteSpace=wrap;html=1;fillColor=#d5e8d4;strokeColor=#82b366;" parent="1" vertex="1">
          <mxGeometry x="2070" y="380" width="200" height="20" as="geometry" />
        </mxCell>
        <mxCell id="o8JyrVgUbE3rWhO2O6_V-203" value="13" style="rounded=0;whiteSpace=wrap;html=1;fillColor=#d5e8d4;strokeColor=#82b366;" parent="1" vertex="1">
          <mxGeometry x="2130" y="420" width="260" height="20" as="geometry" />
        </mxCell>
        <mxCell id="o8JyrVgUbE3rWhO2O6_V-204" value="7" style="rounded=0;whiteSpace=wrap;html=1;fillColor=#d5e8d4;strokeColor=#82b366;" parent="1" vertex="1">
          <mxGeometry x="2370" y="660" width="140" height="20" as="geometry" />
        </mxCell>
        <mxCell id="o8JyrVgUbE3rWhO2O6_V-206" value="9" style="rounded=0;whiteSpace=wrap;html=1;fillColor=#d5e8d4;strokeColor=#82b366;" parent="1" vertex="1">
          <mxGeometry x="2210" y="500" width="180" height="20" as="geometry" />
        </mxCell>
        <mxCell id="o8JyrVgUbE3rWhO2O6_V-208" value="15" style="rounded=0;whiteSpace=wrap;html=1;fillColor=#ffe6cc;strokeColor=#d79b00;" parent="1" vertex="1">
          <mxGeometry x="2050" y="820" width="300" height="20" as="geometry" />
        </mxCell>
        <mxCell id="o8JyrVgUbE3rWhO2O6_V-209" value="26" style="rounded=0;whiteSpace=wrap;html=1;fillColor=#60a917;strokeColor=#2D7600;fontColor=#ffffff;" parent="1" vertex="1">
          <mxGeometry x="2070" y="300" width="520" height="20" as="geometry" />
        </mxCell>
        <mxCell id="o8JyrVgUbE3rWhO2O6_V-210" value="26" style="rounded=0;whiteSpace=wrap;html=1;fillColor=#60a917;strokeColor=#2D7600;fontColor=#ffffff;" parent="1" vertex="1">
          <mxGeometry x="2070" y="260" width="520" height="20" as="geometry" />
        </mxCell>
        <mxCell id="o8JyrVgUbE3rWhO2O6_V-211" value="10" style="rounded=0;whiteSpace=wrap;html=1;fillColor=#60a917;strokeColor=#2D7600;fontColor=#ffffff;" parent="1" vertex="1">
          <mxGeometry x="2390" y="620" width="200" height="20" as="geometry" />
        </mxCell>
        <mxCell id="o8JyrVgUbE3rWhO2O6_V-212" value="&lt;div&gt;10&lt;/div&gt;" style="rounded=0;whiteSpace=wrap;html=1;fillColor=#60a917;strokeColor=#2D7600;fontColor=#ffffff;" parent="1" vertex="1">
          <mxGeometry x="2390" y="500" width="200" height="20" as="geometry" />
        </mxCell>
        <mxCell id="o8JyrVgUbE3rWhO2O6_V-213" value="5" style="rounded=0;whiteSpace=wrap;html=1;fillColor=#60a917;strokeColor=#2D7600;fontColor=#ffffff;" parent="1" vertex="1">
          <mxGeometry x="2490" y="580" width="100" height="20" as="geometry" />
        </mxCell>
        <mxCell id="o8JyrVgUbE3rWhO2O6_V-214" value="10" style="rounded=0;whiteSpace=wrap;html=1;fillColor=#60a917;strokeColor=#2D7600;fontColor=#ffffff;" parent="1" vertex="1">
          <mxGeometry x="2390" y="460" width="200" height="20" as="geometry" />
        </mxCell>
        <mxCell id="o8JyrVgUbE3rWhO2O6_V-215" value="4" style="rounded=0;whiteSpace=wrap;html=1;fillColor=#60a917;strokeColor=#2D7600;fontColor=#ffffff;" parent="1" vertex="1">
          <mxGeometry x="2510" y="540" width="80" height="20" as="geometry" />
        </mxCell>
        <mxCell id="o8JyrVgUbE3rWhO2O6_V-216" value="2" style="rounded=0;whiteSpace=wrap;html=1;fillColor=#60a917;strokeColor=#2D7600;fontColor=#ffffff;" parent="1" vertex="1">
          <mxGeometry x="2550" y="820" width="40" height="20" as="geometry" />
        </mxCell>
        <mxCell id="o8JyrVgUbE3rWhO2O6_V-217" value="10" style="rounded=0;whiteSpace=wrap;html=1;fillColor=#60a917;strokeColor=#2D7600;fontColor=#ffffff;" parent="1" vertex="1">
          <mxGeometry x="2390" y="420" width="200" height="20" as="geometry" />
        </mxCell>
        <mxCell id="o8JyrVgUbE3rWhO2O6_V-218" value="16" style="rounded=0;whiteSpace=wrap;html=1;fillColor=#60a917;strokeColor=#2D7600;fontColor=#ffffff;" parent="1" vertex="1">
          <mxGeometry x="2270" y="380" width="320" height="20" as="geometry" />
        </mxCell>
        <mxCell id="o8JyrVgUbE3rWhO2O6_V-219" value="4" style="rounded=0;whiteSpace=wrap;html=1;fillColor=#60a917;strokeColor=#2D7600;fontColor=#ffffff;" parent="1" vertex="1">
          <mxGeometry x="2510" y="660" width="80" height="20" as="geometry" />
        </mxCell>
        <mxCell id="o8JyrVgUbE3rWhO2O6_V-220" value="5" style="rounded=0;whiteSpace=wrap;html=1;fillColor=#60a917;strokeColor=#2D7600;fontColor=#ffffff;" parent="1" vertex="1">
          <mxGeometry x="2490" y="700" width="100" height="20" as="geometry" />
        </mxCell>
        <mxCell id="o8JyrVgUbE3rWhO2O6_V-221" value="25" style="rounded=0;whiteSpace=wrap;html=1;fillColor=#60a917;strokeColor=#2D7600;fontColor=#ffffff;" parent="1" vertex="1">
          <mxGeometry x="2090" y="340" width="500" height="20" as="geometry" />
        </mxCell>
        <mxCell id="o8JyrVgUbE3rWhO2O6_V-222" value="4" style="rounded=0;whiteSpace=wrap;html=1;fillColor=#60a917;strokeColor=#2D7600;fontColor=#ffffff;" parent="1" vertex="1">
          <mxGeometry x="2510" y="780" width="80" height="20" as="geometry" />
        </mxCell>
        <mxCell id="o8JyrVgUbE3rWhO2O6_V-223" value="4" style="rounded=0;whiteSpace=wrap;html=1;fillColor=#d5e8d4;strokeColor=#82b366;" parent="1" vertex="1">
          <mxGeometry x="2410" y="700" width="80" height="20" as="geometry" />
        </mxCell>
        <mxCell id="o8JyrVgUbE3rWhO2O6_V-224" value="7" style="rounded=0;whiteSpace=wrap;html=1;fillColor=#60a917;strokeColor=#2D7600;fontColor=#ffffff;" parent="1" vertex="1">
          <mxGeometry x="2450" y="740" width="140" height="20" as="geometry" />
        </mxCell>
        <mxCell id="o8JyrVgUbE3rWhO2O6_V-225" value="" style="rounded=0;whiteSpace=wrap;html=1;fillColor=#fa6800;strokeColor=#C73500;fontColor=#000000;" parent="1" vertex="1">
          <mxGeometry x="1990" y="910" width="20" height="20" as="geometry" />
        </mxCell>
        <mxCell id="o8JyrVgUbE3rWhO2O6_V-226" value="" style="rounded=0;whiteSpace=wrap;html=1;fillColor=#ffe6cc;strokeColor=#d79b00;" parent="1" vertex="1">
          <mxGeometry x="2120" y="910" width="20" height="20" as="geometry" />
        </mxCell>
        <mxCell id="o8JyrVgUbE3rWhO2O6_V-227" value="" style="rounded=0;whiteSpace=wrap;html=1;fillColor=#d5e8d4;strokeColor=#82b366;" parent="1" vertex="1">
          <mxGeometry x="2380" y="910" width="20" height="20" as="geometry" />
        </mxCell>
        <mxCell id="o8JyrVgUbE3rWhO2O6_V-228" value="" style="rounded=0;whiteSpace=wrap;html=1;fillColor=#fff2cc;strokeColor=#d6b656;" parent="1" vertex="1">
          <mxGeometry x="2250" y="910" width="20" height="20" as="geometry" />
        </mxCell>
        <mxCell id="o8JyrVgUbE3rWhO2O6_V-229" value="" style="rounded=0;whiteSpace=wrap;html=1;fillColor=#60a917;strokeColor=#2D7600;fontColor=#ffffff;" parent="1" vertex="1">
          <mxGeometry x="2510" y="910" width="20" height="20" as="geometry" />
        </mxCell>
        <mxCell id="o8JyrVgUbE3rWhO2O6_V-230" value="Not important&#xa;(irrelevant)" style="text;whiteSpace=wrap;align=center;" parent="1" vertex="1">
          <mxGeometry x="1950" y="940" width="100" height="40" as="geometry" />
        </mxCell>
        <mxCell id="o8JyrVgUbE3rWhO2O6_V-231" value="Slightly important &#xa;(unnecessary)" style="text;whiteSpace=wrap;align=center;" parent="1" vertex="1">
          <mxGeometry x="2080" y="940" width="100" height="40" as="geometry" />
        </mxCell>
        <mxCell id="o8JyrVgUbE3rWhO2O6_V-232" value="25%" style="text;whiteSpace=wrap;align=center;" parent="1" vertex="1">
          <mxGeometry x="2140" y="850" width="100" height="40" as="geometry" />
        </mxCell>
        <mxCell id="o8JyrVgUbE3rWhO2O6_V-233" value="50%" style="text;whiteSpace=wrap;align=center;" parent="1" vertex="1">
          <mxGeometry x="2280" y="850" width="100" height="40" as="geometry" />
        </mxCell>
        <mxCell id="o8JyrVgUbE3rWhO2O6_V-234" value="75%" style="text;whiteSpace=wrap;align=center;" parent="1" vertex="1">
          <mxGeometry x="2430" y="850" width="100" height="40" as="geometry" />
        </mxCell>
        <mxCell id="o8JyrVgUbE3rWhO2O6_V-235" value="100%" style="text;whiteSpace=wrap;align=center;" parent="1" vertex="1">
          <mxGeometry x="2530" y="850" width="100" height="40" as="geometry" />
        </mxCell>
        <mxCell id="o8JyrVgUbE3rWhO2O6_V-236" value="0%" style="text;whiteSpace=wrap;align=center;" parent="1" vertex="1">
          <mxGeometry x="2010" y="850" width="100" height="40" as="geometry" />
        </mxCell>
        <mxCell id="o8JyrVgUbE3rWhO2O6_V-237" value="Moderately important&#xa;(useful)" style="text;whiteSpace=wrap;align=center;" parent="1" vertex="1">
          <mxGeometry x="2195" y="940" width="130" height="40" as="geometry" />
        </mxCell>
        <mxCell id="o8JyrVgUbE3rWhO2O6_V-238" value="Important&#xa;(desirable)" style="text;whiteSpace=wrap;align=center;" parent="1" vertex="1">
          <mxGeometry x="2330" y="940" width="130" height="40" as="geometry" />
        </mxCell>
        <mxCell id="o8JyrVgUbE3rWhO2O6_V-239" value="Very important&#xa;(mandatory)" style="text;whiteSpace=wrap;align=center;" parent="1" vertex="1">
          <mxGeometry x="2470" y="940" width="100" height="40" as="geometry" />
        </mxCell>
        <mxCell id="4sjrf0ck1Lo2BFnee115-6" value="1" style="rounded=0;whiteSpace=wrap;html=1;fillColor=#fa6800;strokeColor=#C73500;fontColor=#000000;" parent="1" vertex="1">
          <mxGeometry x="2050" y="460" width="20" height="20" as="geometry" />
        </mxCell>
        <mxCell id="4sjrf0ck1Lo2BFnee115-7" value="1" style="rounded=0;whiteSpace=wrap;html=1;fillColor=#ffe6cc;strokeColor=#d79b00;" parent="1" vertex="1">
          <mxGeometry x="2070" y="460" width="20" height="20" as="geometry" />
        </mxCell>
        <mxCell id="4sjrf0ck1Lo2BFnee115-8" value="3" style="rounded=0;whiteSpace=wrap;html=1;fillColor=#fff2cc;strokeColor=#d6b656;" parent="1" vertex="1">
          <mxGeometry x="2090" y="460" width="60" height="20" as="geometry" />
        </mxCell>
        <mxCell id="4sjrf0ck1Lo2BFnee115-11" value="5" style="rounded=0;whiteSpace=wrap;html=1;fillColor=#fa6800;strokeColor=#C73500;fontColor=#000000;" parent="1" vertex="1">
          <mxGeometry x="2050" y="540" width="100" height="20" as="geometry" />
        </mxCell>
        <mxCell id="4sjrf0ck1Lo2BFnee115-13" value="2" style="rounded=0;whiteSpace=wrap;html=1;fillColor=#ffe6cc;strokeColor=#d79b00;" parent="1" vertex="1">
          <mxGeometry x="2050" y="580" width="40" height="20" as="geometry" />
        </mxCell>
        <mxCell id="4sjrf0ck1Lo2BFnee115-14" value="1" style="rounded=0;whiteSpace=wrap;html=1;fillColor=#fa6800;strokeColor=#C73500;fontColor=#000000;" parent="1" vertex="1">
          <mxGeometry x="2050" y="620" width="20" height="20" as="geometry" />
        </mxCell>
        <mxCell id="4sjrf0ck1Lo2BFnee115-16" value="8" style="rounded=0;whiteSpace=wrap;html=1;fillColor=#fa6800;strokeColor=#C73500;fontColor=#000000;" parent="1" vertex="1">
          <mxGeometry x="2050" y="740" width="160" height="20" as="geometry" />
        </mxCell>
        <mxCell id="o8JyrVgUbE3rWhO2O6_V-185" value="" style="endArrow=none;html=1;rounded=0;strokeWidth=1;" parent="1" edge="1">
          <mxGeometry width="50" height="50" relative="1" as="geometry">
            <mxPoint x="2050" y="850" as="sourcePoint" />
            <mxPoint x="2050" y="240" as="targetPoint" />
          </mxGeometry>
        </mxCell>
        <mxCell id="4sjrf0ck1Lo2BFnee115-19" value="9" style="rounded=0;whiteSpace=wrap;html=1;fillColor=#fff2cc;strokeColor=#d6b656;" parent="1" vertex="1">
          <mxGeometry x="2350" y="820" width="180" height="20" as="geometry" />
        </mxCell>
        <mxCell id="4sjrf0ck1Lo2BFnee115-21" value="1" style="rounded=0;whiteSpace=wrap;html=1;fillColor=#d5e8d4;strokeColor=#82b366;" parent="1" vertex="1">
          <mxGeometry x="2530" y="820" width="20" height="20" as="geometry" />
        </mxCell>
      </root>
    </mxGraphModel>
  </diagram>
</mxfile>
